# xmcd
#
# Track frame offsets:
#	150
#	15949
#	28211
#	45779
#	63859
#	80749
#	95968
#	109731
#	124950
#	140651
#	154418
#	166973
#	177758
#	191316
#	203035
#	217912
#	231795
#	247828
#	264206
#	281760
#
# Disc length: 3987 seconds
#
# Revision: 1
# Processed by: cddbd v1.5.2PL0 Copyright (c) Steve Scherf et al.
# Submitted via: EZCDAudioConverter 7.0.6.1
#
DISCID=0e0f9114
DTITLE=Marcus - Marcus (1969) 1/2
DYEAR=1900
DGENRE=
TTITLE0=(We'll All) Go Together
TTITLE1=Time Of Our Time
TTITLE2=Helene
TTITLE3=Grains Of Sand
TTITLE4=High Priestess
TTITLE5=The Coming
TTITLE6=Royal Maze
TTITLE7=Butterfly Girl
TTITLE8=Color Song
TTITLE9=Children Of Aquarius
TTITLE10=Go Together [Acoustic Demo]
TTITLE11=Time Of Our Time [Acoustic Demo]
TTITLE12=High Priestess [Acoustic Demo]
TTITLE13=Royal Maze [Acoustic Demo]
TTITLE14=Children Of Aquarius [Acoustic Demo]
TTITLE15=The Coming [Alternate With Band]
TTITLE16=Butterfly Girl [Alternate With Band]
TTITLE17=Color Song [Alternate With Band]
TTITLE18=Helene [Alternate With Band]
TTITLE19=Grains Of Sand [Alternate With Band]
EXTD=
EXTT0=
EXTT1=
EXTT2=
EXTT3=
EXTT4=
EXTT5=
EXTT6=
EXTT7=
EXTT8=
EXTT9=
EXTT10=
EXTT11=
EXTT12=
EXTT13=
EXTT14=
EXTT15=
EXTT16=
EXTT17=
EXTT18=
EXTT19=
PLAYORDER=
